<?xml version="1.0" encoding="iso-8859-1"?>
<!-- Generator: Adobe Illustrator 19.0.0, SVG Export Plug-In . SVG Version: 6.00 Build 0)  -->
<svg version="1.1" id="Layer_1" xmlns="http://www.w3.org/2000/svg" xmlns:xlink="http://www.w3.org/1999/xlink" x="0px" y="0px"
	 viewBox="0 0 392.663 392.663" style="enable-background:new 0 0 392.663 392.663;" xml:space="preserve">
<path style="fill:#56ACE0;" d="M180.17,149.658L56.436,25.925c-5.43-5.43-14.222-5.43-19.653,0s-5.43,14.222,0,19.653
	l104.081,104.081H180.17z"/>
<path style="fill:#FFFFFF;" d="M196.331,332.349c83.459,0,152.566-71.24,158.384-160.905H37.947
	C47.192,247.016,94.966,329.634,196.331,332.349z"/>
<path style="fill:#56ACE0;" d="M231.111,350.515L231.111,350.515c-11.313,2.392-22.949,3.62-34.78,3.62
	c-11.895,0-23.467-1.228-34.78-3.62l0,0c-7.822,5.43-13.446,12.541-16.226,20.299h102.012
	C244.493,362.992,238.933,355.881,231.111,350.515z"/>
<path style="fill:#194F82;" d="M381.737,149.658H211.071L71.952,10.475c-13.964-13.899-36.59-13.899-50.489,0
	S7.564,47,21.463,60.964l88.63,88.63H10.925C4.913,149.594,0,154.442,0,160.519c0,6.012,4.848,10.925,10.925,10.925h5.107
	c4.719,79.644,54.109,146.618,121.083,171.83c-9.826,10.796-15.451,24.178-15.58,38.271c-0.388,5.301,4.913,11.378,10.925,11.055
	h127.741c6.4,0,10.925-5.172,10.925-11.055c-0.129-14.093-5.689-27.41-15.451-38.335c66.909-25.341,116.234-92.251,120.954-171.83
	h5.107c6.012,0,10.925-4.848,10.925-10.925C392.598,154.507,387.749,149.658,381.737,149.658z M36.848,45.578
	c-5.43-5.43-5.43-14.222,0-19.653s14.222-5.43,19.653,0L180.17,149.658h-39.24L36.848,45.578z M145.325,370.814
	c2.78-7.822,8.404-14.933,16.226-20.299l0,0c11.313,2.392,22.885,3.62,34.78,3.62s23.467-1.228,34.78-3.62l0,0
	c7.822,5.43,13.382,12.541,16.162,20.299H145.325z M196.331,332.349C94.966,329.634,47.192,247.016,37.947,171.444h316.768
	C348.897,261.109,279.79,332.349,196.331,332.349z"/>
<path style="fill:#FFC10D;" d="M114.424,193.23c4.784,1.164,8.339,5.43,8.339,10.602c0,6.012-4.848,10.925-10.925,10.925H69.042
	c2.715,7.564,6.012,14.869,9.826,21.786h20.493c6.012,0,10.925,4.848,10.925,10.925c0,6.012-4.848,10.925-10.925,10.925h-6.206
	c25.212,31.935,62.125,52.17,103.176,52.17c64.646,0,119.337-50.23,133.43-117.269H114.424V193.23z"/>
<path style="fill:#194F82;" d="M167.499,262.79h21.01v21.01c0,6.012,4.848,10.925,10.925,10.925c6.012,0,10.925-4.848,10.925-10.925
	v-21.01h21.01c6.012,0,10.925-4.848,10.925-10.925c0-6.012-4.848-10.925-10.925-10.925h-21.01v-21.01
	c0-6.012-4.848-10.925-10.925-10.925c-6.077,0-10.925,4.848-10.925,10.925v21.01h-21.01c-6.012,0-10.925,4.848-10.925,10.925
	C156.638,257.941,161.487,262.79,167.499,262.79z"/>
<g>
</g>
<g>
</g>
<g>
</g>
<g>
</g>
<g>
</g>
<g>
</g>
<g>
</g>
<g>
</g>
<g>
</g>
<g>
</g>
<g>
</g>
<g>
</g>
<g>
</g>
<g>
</g>
<g>
</g>
</svg>
