<?xml version="1.0" encoding="iso-8859-1"?>
<!-- Generator: Adobe Illustrator 19.0.0, SVG Export Plug-In . SVG Version: 6.00 Build 0)  -->
<svg version="1.1" id="Layer_1" xmlns="http://www.w3.org/2000/svg" xmlns:xlink="http://www.w3.org/1999/xlink" x="0px" y="0px"
	 viewBox="0 0 392.663 392.663" style="enable-background:new 0 0 392.663 392.663;" xml:space="preserve">
<path style="fill:#FFFFFF;" d="M291.976,186.893l74.861-43.378l-39.628-68.913l-74.796,43.248
	c-8.21,4.396-16.614-1.875-16.356-9.438V21.786h-79.386v22.626H188.8c6.012,0,10.925,4.848,10.925,10.925
	c0,6.012-4.848,10.925-10.925,10.925h-32.129v17.39h15.451c6.012,0,10.925,4.848,10.925,10.925c0,6.012-4.848,10.925-10.925,10.925
	h-15.451v3.038c0.129,7.952-9.051,13.899-16.356,9.438L65.519,74.731L25.826,143.58l74.861,43.378
	c6.853,3.879,7.434,14.739,0,18.877l-74.861,43.248l39.628,68.913l74.796-43.249c6.659-4.008,16.356,0.517,16.356,9.438v86.691
	h79.257v-86.756c-0.065-8.275,9.051-13.576,16.356-9.438l74.796,43.249l39.628-68.913l-74.861-43.378
	C284.283,201.891,285.188,190.513,291.976,186.893z"/>
<polygon style="fill:#56ACE0;" points="178.457,348.962 178.457,227.426 73.535,288.194 55.564,257.099 160.55,196.331 
	55.564,135.564 73.535,104.469 178.457,165.236 178.457,43.636 214.141,43.636 214.141,165.236 319.192,104.469 337.034,135.564 
	232.049,196.331 337.034,257.099 319.192,288.194 214.141,227.426 214.141,348.962 "/>
<path style="fill:#194F82;" d="M387.135,235.636l-67.943-39.305l68.008-39.305c5.172-3.038,6.982-9.632,4.008-14.933l-50.618-87.79
	c-3.491-5.301-9.891-6.982-14.933-4.008L257.713,89.6V10.925C257.713,4.913,252.865,0,246.788,0H145.745
	c-6.012,0-10.925,4.848-10.925,10.925V89.6L66.877,50.295c-4.784-2.78-11.636-1.552-14.933,4.008l-50.424,87.79
	c-3.038,5.236-1.228,11.895,3.943,14.933l67.943,39.305L5.463,235.636c-5.172,3.038-6.982,9.632-4.008,14.933l50.554,87.79
	c2.844,5.107,9.438,7.37,14.933,4.008l67.943-39.305v78.675c0,6.012,4.848,10.925,10.925,10.925h101.042
	c6.012,0,10.925-4.849,10.925-10.925v-78.675l67.814,39.305c5.818,3.168,11.895,0.711,14.933-4.008l50.554-87.79
	C394.117,245.333,392.372,238.675,387.135,235.636z M327.143,318.061l-74.796-43.249c-7.37-4.202-16.485,1.164-16.356,9.438v86.626
	h-79.321v-86.756c0.065-8.857-9.762-13.511-16.356-9.438l-74.796,43.249l-39.693-68.913l74.861-43.378
	c7.434-4.073,6.853-15.063,0-18.877l-74.861-43.313l39.628-68.913l74.796,43.248c7.24,4.461,16.549-1.552,16.356-9.438v-3.038
	h15.451c6.012,0,10.925-4.848,10.925-10.925c0-6.012-4.848-10.925-10.925-10.925h-15.451V66.198h32.129
	c6.012,0,10.925-4.848,10.925-10.925c0-6.012-4.848-10.925-10.925-10.925h-32.129V21.657h79.257v86.691
	c0.065,8.404,8.727,13.576,16.356,9.438l74.796-43.248l39.628,68.913l-74.861,43.378c-6.788,3.685-7.628,14.998,0,18.877
	l74.861,43.378L327.143,318.061z"/>
<g>
</g>
<g>
</g>
<g>
</g>
<g>
</g>
<g>
</g>
<g>
</g>
<g>
</g>
<g>
</g>
<g>
</g>
<g>
</g>
<g>
</g>
<g>
</g>
<g>
</g>
<g>
</g>
<g>
</g>
</svg>
