<?xml version="1.0" encoding="iso-8859-1"?>
<!-- Generator: Adobe Illustrator 19.0.0, SVG Export Plug-In . SVG Version: 6.00 Build 0)  -->
<svg version="1.1" id="Layer_1" xmlns="http://www.w3.org/2000/svg" xmlns:xlink="http://www.w3.org/1999/xlink" x="0px" y="0px"
	 viewBox="0 0 392.533 392.533" style="enable-background:new 0 0 392.533 392.533;" xml:space="preserve">
<path style="fill:#FFFFFF;" d="M260.881,262.982H239.03l-32.776,78.222c-3.168,7.499-15.321,10.02-20.105,0l-32.776-78.093h-21.786
	c-25.212,0-45.77,20.558-45.77,45.77v62.061h220.832v-62.061C306.651,283.539,286.158,262.982,260.881,262.982z"/>
<path style="fill:#56ACE0;" d="M226.683,348.897l26.893-64.129h7.305c13.188,0,23.984,10.731,23.984,23.984v40.21h-58.182V348.897z
	 M107.604,348.897v-40.21c0-13.188,10.731-23.984,23.984-23.984h7.37l26.893,64.129h-58.246V348.897z"/>
<path style="fill:#194F82;" d="M123.507,97.681c0.517,1.875,1.552,3.297,2.78,4.655c-3.426,10.149-5.236,20.945-5.236,32
	c0,48.549,33.681,87.984,75.119,87.984s75.119-39.499,75.119-87.984c0-10.99-1.875-21.786-5.236-32
	c1.228-1.293,2.327-2.78,2.78-4.655l23.467-83.846C294.368,6.788,288.808,0,281.956,0H110.513
	c-7.37,0.388-12.541,6.659-10.473,13.834L123.507,97.681z M196.234,200.533c-26.376,0-48.226-23.984-52.493-55.143
	c19.135-0.776,49.39-4.655,65.745-20.687c0.905-0.905,1.745-1.875,2.521-2.78c8.598,10.408,21.01,19.653,37.042,20.816
	C245.754,175.192,223.386,200.533,196.234,200.533z M143.677,123.475c0.84-6.206,2.263-12.218,4.396-17.842h48.808
	c-0.711,1.164-1.552,2.327-2.651,3.426C184.598,118.562,162.877,122.634,143.677,123.475z M227.135,105.632h17.131
	c1.875,4.719,3.168,9.632,4.008,14.804C238.836,118.82,231.79,112.032,227.135,105.632z M267.539,21.786l-17.39,62.061h-107.83
	l-17.39-62.061C124.929,21.786,267.539,21.786,267.539,21.786z"/>
<g>
	<path style="fill:#FFC10D;" d="M249.115,142.545c-15.903-1.164-28.38-10.343-37.042-20.816c-0.776,0.905-1.681,1.875-2.521,2.78
		c-16.356,16.097-46.61,19.911-65.745,20.687c4.267,31.289,26.117,55.143,52.493,55.143
		C223.386,200.469,245.754,175.192,249.115,142.545z"/>
	<path style="fill:#FFC10D;" d="M196.881,105.632h-48.743c-2.133,5.624-3.62,11.636-4.396,17.842
		c19.071-0.84,40.857-4.913,50.554-14.481C195.329,107.96,196.17,106.861,196.881,105.632z"/>
	<path style="fill:#FFC10D;" d="M244.267,105.632h-17.131c4.655,6.4,11.636,13.188,21.204,14.804
		C247.434,115.394,246.141,110.352,244.267,105.632z"/>
</g>
<polygon style="fill:#FFFFFF;" points="250.15,83.846 267.539,21.786 124.929,21.786 142.319,83.846 "/>
<g>
	<path style="fill:#194F82;" d="M260.881,241.131H231.79c-4.396,0-8.339,2.651-10.02,6.723l-25.535,60.897l-25.471-60.897
		c-1.681-4.008-5.624-6.723-10.02-6.723h-29.156c-37.236,0-67.556,30.319-67.556,67.556v72.921c0,6.012,4.848,10.925,10.925,10.925
		h242.618c6.012,0,10.925-4.848,10.925-10.925v-72.921C328.436,271.451,298.182,241.131,260.881,241.131z M306.651,370.747H85.818
		v-62.061c0-25.212,20.558-45.77,45.77-45.77h21.851l32.776,78.222c4.848,10.02,16.937,7.499,20.105,0l32.776-78.093h21.786
		c25.212,0,45.77,20.558,45.77,45.77V370.747z"/>
	<path style="fill:#194F82;" d="M276.784,302.804v-13.123c0-6.012-4.848-10.925-10.925-10.925c-6.012,0-10.925,4.848-10.925,10.925
		v13.123H241.81c-6.012,0-10.925,4.848-10.925,10.925s4.848,10.925,10.925,10.925h13.123v13.123c0,6.012,4.848,10.925,10.925,10.925
		c6.012,0,10.925-4.849,10.925-10.925v-13.123h13.123c6.012,0,10.925-4.849,10.925-10.925s-4.848-10.925-10.925-10.925H276.784z"/>
</g>
<g>
</g>
<g>
</g>
<g>
</g>
<g>
</g>
<g>
</g>
<g>
</g>
<g>
</g>
<g>
</g>
<g>
</g>
<g>
</g>
<g>
</g>
<g>
</g>
<g>
</g>
<g>
</g>
<g>
</g>
</svg>
