<?xml version="1.0" encoding="iso-8859-1"?>
<!-- Generator: Adobe Illustrator 19.0.0, SVG Export Plug-In . SVG Version: 6.00 Build 0)  -->
<svg version="1.1" id="Layer_1" xmlns="http://www.w3.org/2000/svg" xmlns:xlink="http://www.w3.org/1999/xlink" x="0px" y="0px"
	 viewBox="0 0 392.598 392.598" style="enable-background:new 0 0 392.598 392.598;" xml:space="preserve">
<path style="fill:#FFC10D;" d="M253.77,21.851c-13.317,0-24.113,10.796-24.113,24.113s10.796,24.113,24.113,24.113
	s24.113-10.796,24.113-24.113C277.948,32.646,267.152,21.851,253.77,21.851z"/>
<path style="fill:#194F82;" d="M253.77,0.065c-25.341,0-45.899,20.622-45.899,45.899c0,25.341,20.622,45.964,45.964,45.964
	s45.964-20.622,45.964-45.964C299.798,20.687,279.111,0.065,253.77,0.065z M253.77,70.141c-13.317,0-24.113-10.796-24.113-24.113
	s10.796-24.113,24.113-24.113s24.113,10.796,24.113,24.113C277.948,59.345,267.152,70.141,253.77,70.141z"/>
<path style="fill:#56ACE0;" d="M306.78,139.378c0-8.21-6.659-14.869-14.869-14.869h-5.495l-22.626,54.95
	c-3.879,9.244-16.485,8.663-20.17,0l-22.626-55.014h-5.43c-8.21,0-14.869,6.659-14.869,14.804v119.143h106.02V139.378H306.78z"/>
<path style="fill:#FFC10D;" d="M217.762,370.812h25.083v-50.683c0-6.012,4.848-10.925,10.925-10.925
	c6.012,0,10.925,4.848,10.925,10.925v50.683h25.083v-90.505h-72.081v90.505H217.762z"/>
<g>
	<path style="fill:#194F82;" d="M291.976,102.659H279.24c-4.396,0-8.404,2.715-10.02,6.723l-15.321,37.236l-15.386-37.236
		c-1.681-4.073-5.624-6.723-10.02-6.723h-12.8c-20.234,0-36.655,16.485-36.655,36.655v130.069c0,6.012,4.848,10.925,10.925,10.925
		h6.077v101.366c0,6.012,4.848,10.925,10.925,10.925h93.867c6.012,0,10.925-4.848,10.925-10.925V280.307h6.012
		c6.012,0,10.925-4.848,10.925-10.925V139.378C328.695,119.143,312.21,102.659,291.976,102.659z M289.907,370.812h-25.083v-50.683
		c0-6.012-4.848-10.925-10.925-10.925c-6.012,0-10.925,4.848-10.925,10.925v50.683h-25.083v-90.505h72.081v90.505H289.907z
		 M200.76,258.521V139.378c0-8.21,6.659-14.869,14.869-14.869h5.495l22.626,55.014c3.685,8.663,16.291,9.244,20.17,0l22.626-54.95
		h5.495c8.21,0,14.869,6.659,14.869,14.869v119.143H200.76V258.521z"/>
	<path style="fill:#194F82;" d="M132.945,21.851c6.012,0,10.925-4.848,10.925-10.925S138.893,0,132.945,0H74.828
		c-6.012,0-10.925,4.848-10.925,10.925v370.747c0,6.012,4.848,10.925,10.925,10.925h58.117c6.012,0,10.925-4.848,10.925-10.925
		c0-6.012-4.848-10.925-10.925-10.925H85.818V340.17h47.127c6.012,0,10.925-4.848,10.925-10.925c0-6.077-4.848-10.925-10.925-10.925
		H85.818v-32.065h22.497c6.012,0,10.925-4.849,10.925-10.925s-4.848-10.925-10.925-10.925H85.818V234.02h47.127
		c6.012,0,10.925-4.848,10.925-10.925c0-6.012-4.848-10.925-10.925-10.925H85.818v-32.065h22.497
		c6.012,0,10.925-4.848,10.925-10.925c0-6.012-4.848-10.925-10.925-10.925H85.818v-30.319h47.127
		c6.012,0,10.925-4.848,10.925-10.925c0-6.012-4.848-10.925-10.925-10.925H85.818V73.956h22.497c6.012,0,10.925-4.848,10.925-10.925
		s-4.848-10.925-10.925-10.925H85.818V21.398h47.127V21.851z"/>
</g>
<g>
</g>
<g>
</g>
<g>
</g>
<g>
</g>
<g>
</g>
<g>
</g>
<g>
</g>
<g>
</g>
<g>
</g>
<g>
</g>
<g>
</g>
<g>
</g>
<g>
</g>
<g>
</g>
<g>
</g>
</svg>
