<?xml version="1.0" encoding="iso-8859-1"?>
<!-- Generator: Adobe Illustrator 19.0.0, SVG Export Plug-In . SVG Version: 6.00 Build 0)  -->
<svg version="1.1" id="Layer_1" xmlns="http://www.w3.org/2000/svg" xmlns:xlink="http://www.w3.org/1999/xlink" x="0px" y="0px"
	 viewBox="0 0 392.663 392.663" style="enable-background:new 0 0 392.663 392.663;" xml:space="preserve">
<g>
	<path style="fill:#FFFFFF;" d="M284.266,370.747v-87.208c0-3.814,2.004-7.37,5.236-9.374c41.115-25.6,65.939-68.137,65.81-116.428
		c0-74.925-60.962-135.952-135.952-135.952S83.409,82.747,83.409,157.737v5.236c0,1.939-0.453,3.814-1.487,5.43l-36.913,64.388
		h27.539c6.012,0,10.925,4.848,10.925,10.925v27.216h84.17c30.384,0,55.014,24.63,55.014,55.014v44.865L284.266,370.747
		L284.266,370.747z"/>
	<path style="fill:#FFFFFF;" d="M200.936,370.747v-44.865c0-18.295-14.933-33.228-33.228-33.228h-84.17v17.907h44.994
		c6.012,0,10.925,4.848,10.925,10.925v49.325h61.479V370.747z"/>
</g>
<path style="fill:#194F82;" d="M219.49,0C132.476,0,61.753,70.788,61.753,157.737v2.327l-44.865,78.222
	c-4.008,6.4,0.646,15.838,9.438,16.291h35.362v66.909c0,6.012,4.848,10.925,10.925,10.925h44.994v49.325
	c0,6.012,4.848,10.925,10.925,10.925h166.659c6.012,0,10.925-4.848,10.925-10.925v-92.186
	c44.671-29.285,71.111-78.093,71.111-131.814C377.163,70.788,306.375,0,219.49,0z M200.936,370.747h-61.543v-49.325
	c0-6.012-4.848-10.925-10.925-10.925H83.474V292.59h84.17c18.295,0,33.228,14.933,33.228,33.228v44.929H200.936z M289.567,274.166
	c-3.232,2.004-5.236,5.495-5.236,9.374v87.273h-61.543v-44.865c0-30.384-24.63-55.014-55.014-55.014H83.538v-27.216
	c0-6.012-4.848-10.925-10.925-10.925H45.138l36.913-64.388c0.905-1.616,1.487-3.556,1.487-5.43v-5.236
	c0-74.925,60.962-135.952,135.952-135.952s135.952,60.962,135.952,135.952C355.441,206.028,330.682,248.566,289.567,274.166z"/>
<g>
	<path style="fill:#56ACE0;" d="M278.706,163.556h54.691c0.065-1.939,0.129-3.879,0.129-5.883
		c0-62.901-51.135-114.101-114.101-114.101c-62.901,0-114.101,51.135-114.101,114.101v14.028l-22.497,39.24h22.562v59.863h62.255
		c30.384,0,55.014,24.63,55.014,55.014v23.014h39.693v-83.782l15.838-9.503c11.83-7.176,22.044-16.162,30.384-26.505h-14.61
		c-6.012,0-10.925-4.848-10.925-10.925c0-6.012,4.848-10.925,10.925-10.925h28.444c3.297-6.982,5.947-14.222,7.822-21.786h-51.459
		c-6.012,0-10.925-4.848-10.925-10.925C267.846,168.469,272.694,163.556,278.706,163.556z"/>
	<path style="fill:#56ACE0;" d="M167.708,292.655h-6.465v56.242h39.693v-23.014C200.936,307.523,186.003,292.655,167.708,292.655z"
		/>
</g>
<g>
</g>
<g>
</g>
<g>
</g>
<g>
</g>
<g>
</g>
<g>
</g>
<g>
</g>
<g>
</g>
<g>
</g>
<g>
</g>
<g>
</g>
<g>
</g>
<g>
</g>
<g>
</g>
<g>
</g>
</svg>
